<svg width="157" height="67" viewBox="0 0 157 67" fill="none" xmlns="http://www.w3.org/2000/svg">
<path d="M24.6087 60.5721C24.4961 59.8778 24.4085 59.3773 24.371 58.9332C23.8451 58.762 23.2974 58.6671 22.7446 58.6517C20.9868 58.6517 20.0172 59.6338 20.0172 60.8536C20.0172 61.9734 20.943 62.6302 22.094 63.2307C22.9885 63.7124 23.4764 64.1691 23.4764 64.8321C23.4864 64.9895 23.463 65.1471 23.4075 65.2947C23.352 65.4423 23.2658 65.5763 23.1546 65.6881C23.0435 65.7999 22.9098 65.8867 22.7626 65.943C22.6153 65.9993 22.4578 66.0236 22.3004 66.0144C21.1494 66.0144 20.5113 64.8008 20.2549 64.0815L19.8232 64.2128C19.8873 64.8476 20.0066 65.4755 20.1798 66.0895C20.4255 66.1934 20.6785 66.2791 20.9367 66.346C21.3113 66.4379 21.6957 66.4841 22.0815 66.4836C23.858 66.4836 24.9778 65.4764 24.9778 64.2003C24.9778 63.0431 24.1145 62.3988 22.8884 61.792C21.9063 61.2853 21.4559 60.91 21.4559 60.2406C21.4517 60.0924 21.4775 59.9448 21.5317 59.8067C21.5859 59.6687 21.6675 59.543 21.7714 59.4373C21.8754 59.3315 21.9998 59.2479 22.1369 59.1914C22.274 59.1349 22.4211 59.1066 22.5694 59.1083C23.539 59.1083 23.9081 59.9278 24.177 60.6535L24.6087 60.5847V60.5721ZM30.2386 64.951C29.8886 65.2461 29.4454 65.4079 28.9875 65.4076C28.4496 65.4076 27.4299 64.9385 27.4299 63.3433C27.4299 62.1861 27.849 61.5605 28.3995 61.5605C28.8477 61.6184 29.2582 61.8415 29.5505 62.1861C29.62 62.2638 29.7159 62.3128 29.8195 62.3237C29.9696 62.2864 30.1031 62.2006 30.1993 62.0795C30.2955 61.9584 30.3489 61.8089 30.3513 61.6543C30.3513 61.5167 30.3137 61.3854 30.1136 61.2477C29.8019 61.0643 29.4422 60.9793 29.0814 61.0038C28.3859 61.051 27.718 61.2939 27.1547 61.7044C26.7803 61.9543 26.4713 62.2904 26.2536 62.6844C26.0359 63.0784 25.9159 63.5189 25.9036 63.9689C25.892 64.3033 25.9498 64.6364 26.0734 64.9474C26.1971 65.2583 26.3838 65.5402 26.6219 65.7753C26.8599 66.0104 27.1441 66.1936 27.4566 66.3134C27.769 66.4331 28.1028 66.4868 28.437 66.4711C28.8485 66.4392 29.2474 66.3146 29.6038 66.1066C29.9603 65.8986 30.265 65.6126 30.4951 65.27L30.2512 64.9885L30.2386 64.951ZM36.8632 66.2959V65.9331C36.2377 65.8518 36.2001 65.8268 36.2001 65.0886V62.8804C36.2001 61.6731 35.6559 61.0038 34.58 61.0038C33.9756 61.0454 33.4077 61.3082 32.9848 61.7419V58.2076C32.249 58.3868 31.5033 58.5225 30.7516 58.6142V58.9395C31.3771 59.0145 31.4272 59.0208 31.4272 59.7026V65.1136C31.4272 65.8518 31.3521 65.9018 30.664 65.9581V66.3209H33.5103V65.9581C33.0474 65.8893 32.9848 65.8393 32.9848 65.1512V62.1861C33.0946 62.0789 33.2248 61.9948 33.3678 61.9389C33.5107 61.883 33.6634 61.8565 33.8168 61.8608C34.2735 61.8608 34.6488 62.1485 34.6488 63.0055V65.1512C34.6488 65.8205 34.5925 65.8768 34.0232 65.9581V66.3209L36.8632 66.2959ZM40.2787 60.9788C39.9051 60.9708 39.5337 61.0393 39.1876 61.1802C38.8414 61.3211 38.5277 61.5313 38.2658 61.7979C38.0039 62.0645 37.7993 62.3818 37.6646 62.7304C37.5299 63.0791 37.4679 63.4516 37.4825 63.825C37.4775 64.1802 37.546 64.5326 37.6836 64.8601C37.8213 65.1876 38.0252 65.4831 38.2824 65.728C38.5397 65.973 38.8448 66.1621 39.1787 66.2835C39.5125 66.4049 39.8679 66.456 40.2224 66.4335C40.5931 66.447 40.9624 66.382 41.3061 66.2428C41.6499 66.1036 41.9604 65.8933 42.2173 65.6258C42.4742 65.3583 42.6717 65.0395 42.7969 64.6904C42.922 64.3412 42.972 63.9696 42.9436 63.5998C42.9497 63.2502 42.8847 62.903 42.7523 62.5793C42.62 62.2556 42.4232 61.9623 42.174 61.7171C41.9247 61.4719 41.6281 61.28 41.3023 61.1531C40.9764 61.0261 40.6282 60.9668 40.2787 60.9788ZM40.0973 61.4229C40.8104 61.4229 41.2233 62.3737 41.2233 63.9251C41.2233 65.6453 40.7729 65.9706 40.3413 65.9706C39.6094 65.9706 39.2028 64.8634 39.2028 63.3934C39.2028 62.0484 39.6219 61.4041 40.0973 61.4041V61.4229ZM46.5968 61.0038C46.2231 60.9958 45.8518 61.0644 45.5057 61.2052C45.1595 61.3461 44.8458 61.5563 44.5839 61.8229C44.322 62.0895 44.1173 62.4069 43.9826 62.7555C43.8479 63.1041 43.786 63.4766 43.8006 63.85C43.7956 64.2052 43.864 64.5576 44.0017 64.8851C44.1393 65.2126 44.3432 65.5081 44.6005 65.753C44.8578 65.998 45.1629 66.1871 45.4968 66.3085C45.8306 66.4299 46.1859 66.481 46.5405 66.4586C46.9111 66.472 47.2804 66.407 47.6242 66.2678C47.968 66.1286 48.2785 65.9183 48.5354 65.6508C48.7923 65.3833 48.9898 65.0645 49.1149 64.7154C49.2401 64.3662 49.2901 63.9946 49.2616 63.6248C49.2678 63.2752 49.2027 62.928 49.0704 62.6043C48.9381 62.2807 48.7413 61.9873 48.492 61.7421C48.2427 61.4969 47.9461 61.305 47.6203 61.1781C47.2945 61.0511 46.9463 60.9918 46.5968 61.0038ZM46.4154 61.4479C47.1285 61.4479 47.5414 62.3988 47.5414 63.9501C47.5414 65.6704 47.091 65.9956 46.6593 65.9956C45.9274 65.9956 45.5209 64.8884 45.5209 63.4184C45.5209 62.0735 45.9462 61.4291 46.4154 61.4291V61.4479ZM52.8523 66.3209V65.9581C52.1517 65.8893 52.0891 65.8393 52.0891 65.0573V58.1763C51.3432 58.367 50.5842 58.503 49.8184 58.5829V58.8957C50.5065 58.9832 50.5315 59.027 50.5315 59.7277V65.0261C50.5315 65.7767 50.4815 65.8455 49.7809 65.9268V66.2897L52.8523 66.3209ZM57.0184 62.4926C56.9544 62.0704 56.8646 61.6526 56.7495 61.2415C56.3805 61.0908 55.9843 61.0183 55.5859 61.0288C54.2598 61.0288 53.5342 61.792 53.5342 62.6802C53.5342 63.5685 54.4537 64.0627 55.0793 64.3755C55.7048 64.6883 55.9738 65.001 55.9738 65.3889C55.9794 65.478 55.9658 65.5672 55.9341 65.6506C55.9023 65.734 55.8531 65.8096 55.7897 65.8724C55.7263 65.9352 55.6502 65.9838 55.5665 66.0147C55.4828 66.0457 55.3934 66.0584 55.3044 66.052C54.5913 66.052 54.0534 65.295 53.7656 64.5569L53.3903 64.6257C53.4163 65.118 53.4812 65.6074 53.5842 66.0895C54.0586 66.3582 54.5966 66.4943 55.1418 66.4836C56.1489 66.4836 57.2875 65.9394 57.2875 64.7759C57.2875 63.8751 56.5806 63.4559 55.6423 63.018C55.0542 62.7615 54.7727 62.4926 54.7727 62.1173C54.7709 61.9466 54.8348 61.7819 54.9513 61.6572C55.0678 61.5325 55.2279 61.4576 55.3983 61.4479C55.905 61.4479 56.2803 61.8608 56.6494 62.6427L57.0184 62.5176V62.4926Z" fill="#808285"/>
<path d="M4.77283 54.6107V54.2229C3.91582 54.1541 3.82824 54.0352 3.82824 53.1094V48.6117C3.82824 47.6358 3.90331 47.542 4.77283 47.4732V47.0916H1.25098V47.4732C2.10798 47.542 2.19556 47.6358 2.19556 48.6117V53.1094C2.19556 54.0477 2.08921 54.1541 1.25098 54.2229V54.6107H4.77283ZM11.5225 54.6107V54.2479C10.9282 54.1728 10.8594 54.1541 10.8594 53.4159V51.0826C10.8594 50.0067 10.3277 49.2936 9.33308 49.2936C8.98174 49.2971 8.64038 49.4108 8.35722 49.6188C8.107 49.769 7.90056 49.9379 7.64408 50.1005V49.281C6.93462 49.4884 6.20827 49.6329 5.47344 49.7127V50.0192C6.04895 50.1193 6.09899 50.1693 6.09899 50.8699V53.4034C6.09899 54.1541 6.03644 54.1728 5.32332 54.2479V54.6107H8.19457V54.2479C7.71915 54.1854 7.65661 54.1416 7.65661 53.4347V50.5196C7.89627 50.3059 8.20506 50.186 8.52613 50.1818C8.97027 50.1818 9.31433 50.4508 9.31433 51.2578V53.4034C9.31433 54.1541 9.25175 54.1854 8.74506 54.2479V54.6107H11.5225ZM15.6074 54.2104L15.4822 53.8225C15.2865 53.9135 15.0725 53.9584 14.8567 53.9539C14.5377 53.9539 14.1811 53.7913 14.1811 52.9092V49.9691H15.3196C15.5073 49.9003 15.5198 49.5625 15.3947 49.4312H14.1936V47.8048L14.0122 47.7234L12.636 48.6117V49.4312H12.1918L11.8478 49.8378L11.9103 49.9691H12.636V53.2971C12.6015 53.4936 12.6145 53.6956 12.674 53.8862C12.7335 54.0767 12.8376 54.2502 12.9778 54.3923C13.118 54.5343 13.2902 54.6407 13.4799 54.7027C13.6697 54.7646 13.8715 54.7803 14.0685 54.7483C14.248 54.736 14.4239 54.6915 14.5877 54.617L15.5948 54.2104H15.6074ZM20.299 53.2408C19.9322 53.5558 19.4624 53.725 18.9791 53.7162C18.1408 53.7162 17.4089 53.0531 17.3839 51.7958C18.5474 51.752 20.055 51.6456 20.2302 51.6081C20.5242 51.5643 20.5742 51.4329 20.5742 51.1764C20.5579 50.6709 20.3447 50.1917 19.9801 49.8411C19.6155 49.4905 19.1283 49.2963 18.6225 49.2998C17.9315 49.3303 17.2781 49.6234 16.7959 50.1193C16.5068 50.3929 16.2766 50.7227 16.1196 51.0884C15.9625 51.4541 15.8819 51.8481 15.8826 52.2461C15.8684 52.5785 15.9235 52.9102 16.0442 53.2202C16.1649 53.5302 16.3487 53.8117 16.584 54.047C16.8192 54.2822 17.1008 54.466 17.4107 54.5867C17.7207 54.7075 18.0524 54.7625 18.3848 54.7483C18.8128 54.7221 19.2286 54.5951 19.5982 54.3777C19.9678 54.1603 20.2808 53.8586 20.5117 53.4972L20.2865 53.2095L20.299 53.2408ZM18.4223 49.7439C18.879 49.7439 19.1354 50.3695 19.1354 50.9575C19.1354 51.1639 19.0729 51.2265 18.854 51.2265H17.459C17.5403 50.3382 17.9719 49.7127 18.4223 49.7127V49.7439ZM24.0523 54.6107V54.2479C23.3517 54.1728 23.2891 54.1291 23.2891 53.3471V46.4661C22.5426 46.6558 21.7839 46.7938 21.0184 46.8789V47.1917C21.7065 47.273 21.7315 47.3231 21.7315 48.0237V53.3221C21.7315 54.0665 21.6814 54.1415 20.9808 54.2229V54.5857L24.0523 54.6107ZM27.4866 54.6107V54.2479C26.7859 54.1728 26.7234 54.1291 26.7234 53.3471V46.4661C25.9769 46.6558 25.2181 46.7938 24.4526 46.8789V47.1917C25.1407 47.273 25.1658 47.3231 25.1658 48.0237V53.3221C25.1658 54.0665 25.1157 54.1415 24.4151 54.2229V54.5857L27.4866 54.6107ZM32.4159 53.2408C32.052 53.5564 31.5839 53.7258 31.1022 53.7162C30.2577 53.7162 29.5321 53.0531 29.5071 51.7958C30.6706 51.752 32.1719 51.6456 32.3533 51.6081C32.6473 51.5643 32.6974 51.4329 32.6974 51.1764C32.6811 50.6709 32.4679 50.1917 32.1033 49.8411C31.7387 49.4905 31.2515 49.2963 30.7457 49.2998C30.0543 49.329 29.4006 49.6223 28.9191 50.1193C28.6298 50.3951 28.4002 50.7272 28.2442 51.0951C28.0882 51.463 28.0092 51.859 28.012 52.2587C27.9978 52.591 28.0529 52.9227 28.1736 53.2327C28.2944 53.5427 28.4782 53.8242 28.7134 54.0595C28.9487 54.2947 29.2302 54.4785 29.5402 54.5993C29.8502 54.72 30.1818 54.775 30.5142 54.7609C30.9433 54.7356 31.3603 54.6091 31.7311 54.3916C32.1019 54.1742 32.4159 53.872 32.6473 53.5098L32.4159 53.222V53.2408ZM30.5392 49.7439C31.0022 49.7439 31.2586 50.3695 31.2586 50.9575C31.2586 51.1639 31.1898 51.2265 30.9771 51.2265H29.5821C29.6572 50.3382 30.0951 49.7127 30.5392 49.7127V49.7439ZM37.8394 53.2595C37.4908 53.5571 37.0467 53.7192 36.5883 53.7162C36.0503 53.7162 35.0307 53.2533 35.0307 51.6581C35.0307 50.4946 35.4498 49.8753 36.0003 49.8753C36.4481 49.9344 36.8582 50.1572 37.1513 50.5009C37.2189 50.5819 37.3154 50.6335 37.4203 50.6447C37.5704 50.6075 37.7039 50.5216 37.8 50.4006C37.8962 50.2795 37.9497 50.13 37.952 49.9754C37.952 49.8315 37.9145 49.7064 37.7143 49.5688C37.4135 49.373 37.0596 49.2747 36.7009 49.2873C36.0027 49.3303 35.3316 49.5735 34.768 49.9879C34.3933 50.2361 34.084 50.5709 33.8662 50.964C33.6484 51.3571 33.5286 51.7969 33.5169 52.2461C33.5062 52.5803 33.5647 52.913 33.6886 53.2235C33.8126 53.534 33.9993 53.8156 34.2372 54.0505C34.475 54.2854 34.7589 54.4687 35.0709 54.5888C35.3829 54.7088 35.7164 54.7632 36.0503 54.7483C36.4626 54.7167 36.8621 54.5915 37.2187 54.3823C37.5754 54.1731 37.8796 53.8854 38.1084 53.541L37.8644 53.2595H37.8394ZM42.2183 54.2104L42.0931 53.8225C41.8974 53.9135 41.6834 53.9584 41.4676 53.9539C41.1486 53.9539 40.792 53.7913 40.792 52.9092V49.9691H41.9117C42.1057 49.9003 42.1182 49.5625 41.9931 49.4312H40.792V47.8048L40.6106 47.7234L39.2344 48.6117V49.4312H38.784L38.44 49.8378L38.5088 49.9691H39.2344V53.2971C39.199 53.4955 39.2121 53.6995 39.2725 53.8917C39.3329 54.084 39.4389 54.2588 39.5814 54.4013C39.7239 54.5438 39.8987 54.6498 40.091 54.7102C40.2833 54.7706 40.4873 54.7837 40.6857 54.7483C40.8672 54.7362 41.0452 54.6917 41.2111 54.617L42.2183 54.2104ZM48.5676 53.9789H48.2611C47.8732 53.9414 47.8107 53.8163 47.8107 53.2283V49.3749L46.7535 49.5062C46.3469 49.5062 45.909 49.575 45.5525 49.5876V49.9316L45.8965 49.9879C46.203 50.0567 46.2531 50.138 46.2531 50.6635V53.5723C46.149 53.6776 46.0239 53.7599 45.8859 53.8138C45.748 53.8676 45.6003 53.8919 45.4523 53.8851C45.0395 53.8851 44.6454 53.6286 44.6454 52.8654V51.1202C44.6454 50.4508 44.6454 49.869 44.6829 49.3498C44.3764 49.3874 44.0073 49.4437 43.6132 49.4812C43.2191 49.5188 42.8188 49.55 42.4622 49.5625V49.9066L42.7312 49.9629C43.0377 50.0317 43.0878 50.0942 43.0878 50.5884V53.1532C43.0642 53.3644 43.0874 53.5782 43.1559 53.7794C43.2244 53.9805 43.3364 54.1641 43.4839 54.3171C43.6315 54.47 43.811 54.5885 44.0096 54.6641C44.2082 54.7398 44.421 54.7706 44.6329 54.7546C45.0152 54.7508 45.3885 54.638 45.7088 54.4293C45.9051 54.3029 46.0876 54.1561 46.2531 53.9914V54.6733L46.3594 54.7546C46.6909 54.6733 47.0475 54.592 47.4166 54.5232C47.7857 54.4543 48.1673 54.3793 48.5676 54.3355V53.9852V53.9789ZM54.3226 54.1165L54.2101 53.7537C54.085 53.7961 53.9542 53.8193 53.8222 53.8225C53.597 53.8225 53.4156 53.6599 53.4156 53.1407V51.0451C53.4417 50.7911 53.4051 50.5346 53.3091 50.2979C53.2132 50.0613 53.0607 49.8518 52.8651 49.6876C52.5061 49.4159 52.064 49.2767 51.614 49.2936C50.8848 49.4325 50.1898 49.713 49.5685 50.1193C49.287 50.3069 49.1494 50.4758 49.1494 50.6635C49.1494 50.9888 49.6185 51.2202 49.9501 51.2202C50.0603 51.2276 50.1694 51.1931 50.2552 51.1235C50.3411 51.0539 50.3974 50.9544 50.413 50.8449C50.4585 50.5634 50.5676 50.296 50.732 50.063C50.784 49.9911 50.8528 49.9329 50.9324 49.8937C51.012 49.8544 51.1 49.8353 51.1887 49.8378C51.5577 49.8378 51.883 50.1943 51.883 50.8699V51.3516C51.2708 51.6746 50.6273 51.9345 49.9626 52.1273C49.6989 52.1808 49.4632 52.3269 49.2979 52.5392C49.1327 52.7515 49.0489 53.0158 49.0618 53.2845C49.0844 53.6939 49.2682 54.0777 49.573 54.352C49.8778 54.6263 50.2787 54.7688 50.6882 54.7483C51.1433 54.6267 51.5689 54.4139 51.9393 54.1228C52.0003 54.2832 52.1069 54.4224 52.2459 54.5232C52.4411 54.6885 52.6908 54.7754 52.9465 54.7671L54.2851 54.1416L54.3226 54.1165ZM51.9018 53.6974C51.7768 53.8053 51.6164 53.8633 51.4514 53.8601C51.2614 53.8366 51.0844 53.751 50.948 53.6166C50.8116 53.4822 50.7233 53.3066 50.6969 53.1169C50.6706 52.9273 50.7075 52.7342 50.8021 52.5677C50.8967 52.4012 51.0435 52.2706 51.2199 52.1961L51.9018 51.8208V53.6974ZM57.5317 54.6107V54.2479C56.8311 54.1728 56.7686 54.1291 56.7686 53.3471V46.4661C56.0221 46.6558 55.2633 46.7938 54.4978 46.8789V47.1917C55.1859 47.273 55.211 47.3231 55.211 48.0237V53.3221C55.211 54.0665 55.1609 54.1415 54.4603 54.2229V54.5857L57.5317 54.6107Z" fill="#808285"/>
<path d="M8.00078 35.3565H5.12952V35.7318C5.94899 35.7693 6.18669 35.9445 6.2555 36.3574C6.33955 37.0065 6.37718 37.6608 6.3681 38.3153V40.3672H6.31804L2.18316 35.3565H0V35.7318C0.191076 35.7232 0.381475 35.7601 0.555489 35.8395C0.729503 35.9189 0.882135 36.0385 1.00087 36.1885C1.20104 36.445 1.20105 36.6576 1.20105 37.4396V39.8855C1.20891 40.5358 1.17129 41.1858 1.08845 41.8309C1.03841 42.2751 0.794451 42.4565 0.118856 42.5065V42.8819H3.02764V42.5065C2.14562 42.4752 1.93921 42.2626 1.87665 41.8184C1.80608 41.1766 1.77264 40.5312 1.77654 39.8855V37.3207H1.81407L6.34931 43.0007H6.97486V38.3279C6.96634 37.6692 7.004 37.0107 7.0875 36.3574C7.13754 35.9382 7.36899 35.7318 8.01956 35.7318V35.3565H8.00078ZM13.5307 42.3877L13.4118 42.0186C13.2903 42.067 13.161 42.0925 13.0302 42.0937C12.7988 42.0937 12.6236 41.9248 12.6236 41.4118V39.3162C12.648 39.0624 12.6107 38.8063 12.5149 38.57C12.419 38.3336 12.2675 38.1239 12.0731 37.9588C11.7146 37.6852 11.2727 37.5438 10.822 37.5584C10.0934 37.6965 9.39997 37.9794 8.78271 38.3904C8.50122 38.5781 8.35734 38.7407 8.35734 38.9284C8.35734 39.2599 8.83275 39.4914 9.16429 39.4914C9.27387 39.4986 9.38211 39.4639 9.46695 39.3942C9.55179 39.3244 9.60688 39.225 9.62097 39.1161C9.67176 38.8361 9.78043 38.5697 9.94001 38.3341C9.99219 38.2609 10.0619 38.2019 10.1427 38.1625C10.2236 38.1232 10.3131 38.1048 10.4029 38.1089C10.772 38.1089 11.091 38.4592 11.091 39.1411V39.6227C10.4807 39.9435 9.83932 40.2013 9.17681 40.3922C8.91271 40.448 8.67684 40.5954 8.51087 40.8083C8.3449 41.0212 8.25949 41.2859 8.26976 41.5557C8.29398 41.9656 8.47913 42.3494 8.78489 42.6235C9.09065 42.8977 9.49233 43.04 9.90247 43.0195C10.3578 42.8985 10.7836 42.6856 11.1536 42.3939C11.2193 42.5499 11.3251 42.6859 11.4601 42.788C11.6544 42.9556 11.9042 43.0448 12.1607 43.0383L13.5056 42.4127L13.5307 42.3877ZM11.1035 41.9623C10.9834 42.0748 10.8239 42.1355 10.6594 42.1312C10.4425 42.1167 10.2401 42.0173 10.096 41.8545C9.95197 41.6917 9.87794 41.4787 9.88995 41.2617C9.88476 41.0895 9.93392 40.9201 10.0305 40.7775C10.1271 40.6349 10.2661 40.5263 10.4279 40.4672C10.6594 40.3359 10.8846 40.2045 11.1035 40.0919V41.9686V41.9623ZM18.3411 41.2054L18.1472 41.5432C17.9991 41.8451 17.7583 42.0917 17.4601 42.247C17.1618 42.4023 16.8218 42.4582 16.4895 42.4065H15.7889C16.6959 40.78 17.4716 39.4351 18.3912 37.8524L18.2911 37.7023H15.3197C14.8881 37.7023 14.7505 37.6335 14.6566 37.4521H14.3376C14.2193 38.0463 14.0668 38.6332 13.881 39.2099L14.2751 39.3412L14.4565 38.9972C14.5575 38.723 14.7488 38.4914 14.9989 38.3402C15.2489 38.189 15.5429 38.1273 15.8327 38.1652H16.4582C15.6262 39.654 14.7755 41.1554 13.8059 42.7255L13.9185 42.8756H18.1597L18.7039 41.3555L18.3224 41.2054H18.3411ZM24.434 42.3877L24.3151 42.0186C24.1935 42.0663 24.0642 42.0918 23.9336 42.0937C23.7021 42.0937 23.5269 41.9248 23.5269 41.4118V39.3162C23.5514 39.0624 23.514 38.8063 23.4182 38.57C23.3224 38.3336 23.1708 38.1239 22.9765 37.9588C22.618 37.6852 22.176 37.5438 21.7254 37.5584C20.9968 37.6965 20.3033 37.9794 19.6861 38.3904C19.4046 38.5781 19.2607 38.7407 19.2607 38.9284C19.2607 39.2599 19.7361 39.4914 20.0677 39.4914C20.1772 39.4986 20.2855 39.4639 20.3703 39.3942C20.4552 39.3244 20.5102 39.225 20.5243 39.1161C20.5723 38.8352 20.6812 38.5684 20.8433 38.3341C20.8955 38.2609 20.9653 38.2019 21.0461 38.1625C21.127 38.1232 21.2164 38.1048 21.3062 38.1089C21.6753 38.1089 21.9943 38.4592 21.9943 39.1411V39.6227C21.384 39.9435 20.7427 40.2013 20.0802 40.3922C19.816 40.448 19.5802 40.5954 19.4142 40.8083C19.2482 41.0212 19.1628 41.2859 19.1731 41.5557C19.1973 41.9656 19.3825 42.3494 19.6882 42.6235C19.994 42.8977 20.3957 43.04 20.8058 43.0195C21.2612 42.8985 21.6869 42.6856 22.0569 42.3939C22.1205 42.5512 22.2266 42.6877 22.3634 42.788C22.5571 42.9567 22.8073 43.0461 23.064 43.0383L24.409 42.4127L24.434 42.3877ZM22.0069 41.9623C21.8868 42.0748 21.7272 42.1355 21.5627 42.1312C21.3458 42.1167 21.1434 42.0173 20.9994 41.8545C20.8553 41.6917 20.7813 41.4787 20.7933 41.2617C20.7881 41.0895 20.8373 40.9201 20.9339 40.7775C21.0304 40.6349 21.1695 40.5263 21.3313 40.4672C21.5627 40.3359 21.7879 40.2045 22.0069 40.0919V41.9686V41.9623ZM27.0113 38.7657V37.5146C26.2998 37.735 25.5687 37.8858 24.8281 37.965V38.2778C25.3911 38.4092 25.4536 38.4655 25.4536 39.0848V41.662C25.4536 42.3564 25.3786 42.4252 24.728 42.4815V42.8443H27.9433V42.4815C27.0738 42.4252 27.0113 42.3752 27.0113 41.662V39.3412C27.2114 38.8971 27.4179 38.8283 27.6368 38.8283C27.8339 38.8406 28.0202 38.9227 28.1623 39.0597C28.2141 39.0999 28.2762 39.1247 28.3414 39.1314C28.4067 39.138 28.4725 39.1262 28.5313 39.0973C28.7089 39.0365 28.8639 38.9232 28.9756 38.7724C29.0873 38.6216 29.1505 38.4404 29.1569 38.2528C29.1561 38.1551 29.1358 38.0585 29.0971 37.9687C29.0584 37.879 29.0021 37.7979 28.9315 37.7303C28.861 37.6627 28.7776 37.6098 28.6863 37.5749C28.595 37.54 28.4976 37.5238 28.4 37.5271C27.8933 37.5271 27.4554 38.0213 27.0488 38.7345L27.0113 38.7657ZM31.5778 37.9838V34.7622C30.83 34.9448 30.0717 35.0806 29.307 35.1688V35.5191C29.9889 35.5692 30.0264 35.6255 30.0264 36.3073V42.5628C30.6773 42.8339 31.3733 42.9803 32.0782 42.9945C32.4821 43.0167 32.8863 42.956 33.2659 42.8161C33.6455 42.6763 33.9924 42.4603 34.2854 42.1814C34.5784 41.9025 34.8112 41.5665 34.9695 41.1943C35.1278 40.822 35.2083 40.4214 35.206 40.0168C35.2169 39.6906 35.1618 39.3654 35.0439 39.061C34.926 38.7566 34.7477 38.4792 34.5198 38.2454C34.2919 38.0117 34.0191 37.8264 33.7178 37.7009C33.4164 37.5753 33.0928 37.5119 32.7663 37.5146C32.4925 37.5307 32.2265 37.6122 31.9907 37.7524L31.5652 37.94L31.5778 37.9838ZM31.5778 38.3779C31.7353 38.326 31.8999 38.2986 32.0657 38.2966C32.8477 38.2966 33.5357 38.9221 33.5357 40.3484C33.5357 41.7746 32.9477 42.5754 32.2846 42.5628C32.1404 42.5518 32.002 42.5008 31.8849 42.4158C31.7679 42.3308 31.6767 42.2149 31.6216 42.0812C31.5679 41.9439 31.5444 41.7967 31.5528 41.6495V38.3779H31.5778ZM41.2863 42.3877L41.1675 42.0186C41.0458 42.0663 40.9166 42.0918 40.7859 42.0937C40.5544 42.0937 40.3793 41.9248 40.3793 41.4118V39.3162C40.4037 39.0624 40.3664 38.8063 40.2705 38.57C40.1747 38.3336 40.0231 38.1239 39.8288 37.9588C39.4703 37.6852 39.0284 37.5438 38.5777 37.5584C37.8488 37.6954 37.1551 37.9784 36.5384 38.3904C36.2569 38.5781 36.113 38.7407 36.113 38.9284C36.113 39.2599 36.5885 39.4914 36.92 39.4914C37.0296 39.4986 37.1378 39.4639 37.2226 39.3942C37.3075 39.3244 37.3626 39.225 37.3766 39.1161C37.4246 38.8352 37.5335 38.5684 37.6957 38.3341C37.7475 38.2605 37.8171 38.2012 37.898 38.1618C37.979 38.1224 38.0687 38.1042 38.1586 38.1089C38.5276 38.1089 38.8467 38.4592 38.8467 39.1411V39.6227C38.2363 39.9435 37.595 40.2013 36.9325 40.3922C36.6684 40.448 36.4325 40.5954 36.2665 40.8083C36.1006 41.0212 36.0152 41.2859 36.0254 41.5557C36.0497 41.9656 36.2348 42.3494 36.5406 42.6235C36.8463 42.8977 37.248 43.04 37.6581 43.0195C38.1135 42.8985 38.5392 42.6856 38.9092 42.3939C38.9728 42.5512 39.079 42.6877 39.2158 42.788C39.4094 42.9567 39.6597 43.0461 39.9164 43.0383L41.2613 42.4127L41.2863 42.3877ZM38.8592 41.9623C38.799 42.0188 38.7282 42.0628 38.6509 42.0918C38.5736 42.1208 38.4913 42.1342 38.4088 42.1312C38.193 42.1152 37.9922 42.0151 37.8495 41.8525C37.7067 41.6898 37.6335 41.4777 37.6456 41.2617C37.6385 41.0891 37.6869 40.9188 37.7837 40.7758C37.8806 40.6328 38.0207 40.5246 38.1836 40.4672C38.4088 40.3359 38.6402 40.2045 38.8592 40.0919V41.9686V41.9623ZM46.86 37.7023H44.7206V38.0526C45.3461 38.1339 45.4337 38.259 45.3086 38.6782C45.0646 39.4476 44.7581 40.3734 44.4391 41.2304L43.5696 38.6656C43.4257 38.234 43.4257 38.1026 44.0387 38.0401V37.6898H41.0674V38.0401C41.5928 38.0964 41.6929 38.2403 41.9494 38.7532C42.2059 39.2662 42.8314 40.9051 43.4695 42.6754C43.5442 42.8399 43.5744 43.0211 43.5571 43.2009C43.4853 43.4006 43.3952 43.5932 43.2881 43.7764C43.0677 44.093 42.7618 44.3403 42.406 44.4895C42.1496 44.6334 42.062 44.7523 42.062 44.9399C42.062 45.3027 42.575 45.628 42.9315 45.628C43.0394 45.6393 43.1476 45.6095 43.2346 45.5446C43.3215 45.4797 43.3808 45.3844 43.4007 45.2777C43.5696 44.7147 43.8135 43.9641 44.5642 42.0812C45.2398 40.4297 45.5838 39.579 45.8904 38.8846C46.1969 38.1902 46.2782 38.1339 46.86 38.0401V37.6898V37.7023ZM51.3952 41.5057C51.0335 41.8257 50.5644 41.9977 50.0816 41.9873C49.2371 41.9873 48.5114 41.318 48.4802 40.0669C49.6437 40.0169 51.1513 39.9105 51.3327 39.8792C51.6267 39.8292 51.6767 39.704 51.6767 39.4476C51.6588 38.9425 51.4452 38.4643 51.0809 38.114C50.7166 37.7638 50.2303 37.569 49.725 37.5709C49.0334 37.5989 48.3791 37.8924 47.8984 38.3904C47.6084 38.6669 47.3783 39 47.2223 39.3691C47.0662 39.7382 46.9876 40.1354 46.9913 40.5361C46.9772 40.8684 47.0322 41.2001 47.153 41.5101C47.2737 41.8201 47.4575 42.1016 47.6927 42.3368C47.928 42.5721 48.2095 42.7559 48.5195 42.8766C48.8295 42.9974 49.1612 43.0524 49.4935 43.0383C49.9195 43.015 50.3342 42.8927 50.7045 42.6809C51.0749 42.4691 51.3906 42.1738 51.6267 41.8184L51.3952 41.5244V41.5057ZM49.5186 38.0151C49.9752 38.0151 50.2317 38.6406 50.2317 39.2224C50.2317 39.4351 50.1691 39.4914 49.9502 39.4914L48.5615 39.5289C48.6365 38.6344 49.0682 38.0151 49.5186 38.0151ZM57.8008 37.7023H55.6865V38.0526C56.3121 38.1464 56.3621 38.2966 56.2057 38.7532C55.9555 39.5414 55.5801 40.6299 55.38 41.099C55.2611 40.7925 54.7544 39.5039 54.4854 38.6969C54.3165 38.2403 54.3541 38.1339 54.9046 38.0714V37.7211H51.9832V38.0714C52.5587 38.1527 52.6964 38.2903 52.9278 38.8533C53.5158 40.2483 54.0475 41.5932 54.6105 43.0132H55.0985C55.8116 41.2304 56.3496 39.8354 56.7937 38.9033C57.0752 38.2778 57.2191 38.1777 57.8008 38.0714V37.7211V37.7023Z" fill="#808285"/>
<path d="M62.5297 6.16815C62.317 6.44965 62.1169 6.74366 61.9042 7.04392C61.3753 7.90856 60.9551 8.83511 60.6531 9.8026C59.8921 11.7363 59.5386 13.8063 59.6147 15.883C55.2358 10.7222 45.9401 6.66235 38.0645 11.7105C63.7933 15.7766 74.9031 36.4949 69.1918 66.4525H69.3732C89.0906 49.1185 70.6243 30.5646 67.0274 24.2841C64.2687 19.4548 63.4305 14.0126 65.6137 10.1654C66.6083 8.57028 68.0471 6.88129 69.8362 6.17442C71.158 5.54645 72.6084 5.23636 74.0715 5.26894C75.5346 5.30153 76.9697 5.67588 78.2623 6.36207C79.4751 7.01023 80.5153 7.93893 81.2962 9.07072C82.9852 11.5729 82.5098 15.8767 81.4777 17.5344C80.4455 19.1921 80.677 18.6604 80.189 19.1296C78.9067 20.3244 76.3919 20.3807 75.2409 19.7551C74.5683 19.4951 74.0231 18.9836 73.7208 18.3289C73.6764 18.2495 73.6532 18.1601 73.6532 18.0692C73.6532 17.9783 73.6764 17.889 73.7208 17.8097C73.7674 17.7361 73.8297 17.6739 73.9033 17.6273C73.9768 17.5808 74.0598 17.5512 74.1462 17.5407C74.8553 17.5377 75.5513 17.3489 76.1648 16.9934C76.7783 16.6378 77.2879 16.1277 77.643 15.5139C78.1008 14.6923 78.263 13.7386 78.1025 12.8119C77.9419 11.8852 77.4684 11.0416 76.761 10.4219C76.1641 9.95066 75.4628 9.62968 74.716 9.48599C73.9692 9.34229 73.1989 9.38008 72.4697 9.59618C66.5082 11.4353 67.1525 20.7622 72.7387 23.7649C74.0216 24.4793 75.4617 24.864 76.9299 24.8846C78.2106 24.9367 79.4884 24.7273 80.6855 24.2692C81.8825 23.811 82.9737 23.1137 83.8923 22.2198C84.6216 21.5175 85.2528 20.72 85.7689 19.849C86.6049 18.4522 87.1814 16.9157 87.4704 15.3137C87.8171 15.5966 88.1899 15.8459 88.5839 16.0581C91.7117 17.7409 96.4909 15.5139 97.5418 13.8249C97.8451 13.3923 98.0578 12.9029 98.1673 12.3861C98.1928 12.2655 98.1792 12.1399 98.1286 12.0275C98.078 11.915 97.993 11.8216 97.8858 11.7606C97.8071 11.7174 97.7199 11.6917 97.6303 11.6852C97.5407 11.6788 97.4508 11.6917 97.3666 11.723C94.8579 12.6273 92.094 12.5082 89.6724 11.3915C88.4855 10.8701 87.4875 9.99664 86.8136 8.8893C86.188 8.04481 85.8252 7.01265 85.1934 6.20569C84.0031 4.60241 82.4711 3.28403 80.7082 2.34605C78.593 1.21012 76.2281 0.618901 73.8272 0.625786C71.6377 0.602662 69.4729 1.08978 67.5044 2.04853C65.5358 3.00728 63.8177 4.41131 62.486 6.14939" fill="#80C342"/>
<path d="M155.218 42.6255C154.736 39.7292 154.442 37.8963 154.205 36.2886C151.755 35.6332 149.234 35.2782 146.698 35.2314C138.998 35.2314 134.406 38.9848 134.406 43.4074C134.406 48.5932 140.43 50.8452 144.252 52.4529C148.731 54.292 152.009 55.8996 152.009 59.2964C152.009 62.6931 149.388 64.8075 144.847 64.8075C138.641 64.8075 135.957 60.1659 135.063 57.3634L133.268 57.6887C133.687 59.8907 134.462 63.8441 134.881 64.8075C135.852 65.1999 136.849 65.5218 137.865 65.7708C139.783 66.2187 141.745 66.4495 143.714 66.4589C151.652 66.4589 156.963 62.5993 156.963 57.7825C156.963 52.5905 151.333 50.4761 146.642 48.5932C141.95 46.7103 139.06 45.1527 139.06 41.7997C139.06 39.2975 141.087 36.7953 145.685 36.7953C150.877 36.7953 152.491 39.9669 153.504 42.8569L155.237 42.6317L155.218 42.6255Z" fill="#8D614C"/>
<path d="M115.908 36.6448V35.3062H104.604V36.6448C107.957 36.7825 109.058 37.408 109.296 39.6099C109.587 42.2454 109.699 44.8975 109.634 47.5482V59.3148H109.49L89.4723 35.3062H83.1668V36.7324C84.8808 36.9514 85.8129 37.358 86.6949 38.4089C87.5769 39.4598 87.6583 39.7476 87.6583 43.2444V53.7661C87.6583 58.145 87.5144 60.4595 87.3642 61.9421C87.1265 64.2879 85.8817 64.9072 83.1543 65.0698V66.4085H94.5018V65.0698C91.2489 64.8822 90.1229 64.3067 89.904 61.867C89.6722 59.1795 89.5762 56.4821 89.6162 53.7849V41.7618H89.7163L109.778 66.421H111.586V47.5482C111.52 44.8508 111.616 42.1519 111.873 39.4661C112.061 37.408 113.212 36.7825 115.896 36.6448H115.908Z" fill="#8D614C"/>
<path d="M132.529 66.3897V65.0511C127.85 64.7633 127.393 64.5256 127.393 60.4095V41.2802C127.393 37.2141 127.85 36.9013 132.529 36.6448V35.3062H117.403V36.6448C122.082 36.9326 122.545 37.2141 122.545 41.2802V60.4095C122.545 64.4756 122.082 64.7883 117.403 65.0511V66.3897H132.529Z" fill="#8D614C"/>
</svg>
